{"title":"Over The Top-720p MP4 AAC x264 BRRip 1987-CC","uid":7145307,"size":2048869179,"categoryP":"video","categoryS":"hd___movies","magnet":"?xt=urn:btih:03e5d84af19bc3fad23bb7afe4e95cbdc0b87a1e&amp;dn=Over+The+Top-720p+MP4+AAC+x264+BRRip+1987-CC&amp;tr=udp%3A%2F%2Ftracker.openbittorrent.com%3A80&amp;tr=udp%3A%2F%2Fopen.demonii.com%3A1337&amp;tr=udp%3A%2F%2Ftracker.coppersurfer.tk%3A6969&amp;tr=udp%3A%2F%2Fexodus.desync.com%3A6969","seeders":2,"leechers":1,"uploader":"Caveman44","files":-1,"time":1333125923,"description":"Source: Over.The.Top.720p.BluRay.x264-HDCLASSiCS\n\nSubs: Arabic, Brazilian, Bulgarian, Croatian, Danish, Dutch, English, Romanian, Slovenian and Spanish.\n\nSample and Screens included.\n\nGeneral\nComplete name                    : Over The Top-720p MP4 AAC x264 BRRip 1987-CC.mp4\nFormat                           : MPEG-4\nFormat profile                   : Base Media\nCodec ID                         : isom\nFile size                        : 1.88 GiB\nDuration                         : 1h 33mn\nOverall bit rate                 : 2 875 Kbps\nEncoded date                     : UTC 2012-03-29 08:30:40\n\nVideo\nID                               : 1\nFormat                           : AVC\nFormat/Info                      : Advanced Video Codec\nFormat profile                   : &lt;a class=&quot;__cf_email__&quot; href=&quot;/cdn-cgi/l/email-protection&quot; data-cfemail=&quot;f7bf9e909fb7bbc4d9c6&quot;&gt;[email&amp;#160;protected]&lt;/a&gt;&lt;script cf-hash='f9e31' type=&quot;text/javascript&quot;&gt;\n/* &lt;![CDATA[ */!function(){try{var t=&quot;currentScript&quot;in document?document.currentScript:function(){for(var t=document.getElementsByTagName(&quot;script&quot;),e=t.length;e--;)if(t[e].getAttribute(&quot;cf-hash&quot;))return t[e]}();if(t&amp;&amp;t.previousSibling){var e,r,n,i,c=t.previousSibling,a=c.getAttribute(&quot;data-cfemail&quot;);if(a){for(e=&quot;&quot;,r=parseInt(a.substr(0,2),16),n=2;a.length-n;n+=2)i=parseInt(a.substr(n,2),16)^r,e+=String.fromCharCode(i);e=document.createTextNode(e),c.parentNode.replaceChild(e,c)}}}catch(u){}}();/* ]]&gt; */&lt;/script&gt;\nFormat settings, CABAC           : Yes\nFormat settings, ReFrames        : 5 frames\nCodec ID                         : avc1\nCodec ID/Info                    : Advanced Video Coding\nDuration                         : 1h 33mn\nBit rate mode                    : Variable\nBit rate                         : 2 486 Kbps\nNominal bit rate                 : 2 539 Kbps\nMaximum bit rate                 : 21.6 Mbps\nWidth                            : 1 280 pixels\nHeight                           : 528 pixels\nDisplay aspect ratio             : 2.40:1\nFrame rate mode                  : Variable\nFrame rate                       : 23.976 fps\nMinimum frame rate               : 19.048 fps\nMaximum frame rate               : 24.390 fps\nResolution                       : 24 bits\nColorimetry                      : 4:2:0\nScan type                        : Progressive\nBits/(Pixel*Frame)               : 0.153\nStream size                      : 1.63 GiB (86%)\nWriting library                  : x264 core 112\n\n\nAudio\nID                               : 2\nFormat                           : AAC\nFormat/Info                      : Advanced Audio Codec\nFormat version                   : Version 4\nFormat profile                   : LC\nFormat settings, SBR             : No\nCodec ID                         : 40\nDuration                         : 1h 33mn\nBit rate mode                    : Variable\nBit rate                         : 384 Kbps\nMaximum bit rate                 : 597 Kbps\nChannel(s)                       : 6 channels\nChannel positions                : Front: L C R, Rear: L R, LFE\nSampling rate                    : 48.0 KHz\nResolution                       : 16 bits\nStream size                      : 257 MiB (13%)\nLanguage                         : English","torrent":{"xt":"urn:btih:03e5d84af19bc3fad23bb7afe4e95cbdc0b87a1e","amp;dn":"Over+The+Top-720p+MP4+AAC+x264+BRRip+1987-CC","amp;tr":["udp%3A%2F%2Ftracker.openbittorrent.com%3A80","udp%3A%2F%2Fopen.demonii.com%3A1337","udp%3A%2F%2Ftracker.coppersurfer.tk%3A6969","udp%3A%2F%2Fexodus.desync.com%3A6969"],"infoHash":"03e5d84af19bc3fad23bb7afe4e95cbdc0b87a1e","infoHashBuffer":{"type":"Buffer","data":[3,229,216,74,241,155,195,250,210,59,183,175,228,233,92,189,192,184,122,30]},"announce":[],"urlList":[]}}